<?xml version="1.0" encoding="utf-8"?>
<!-- Generator: Adobe Illustrator 24.2.1, SVG Export Plug-In . SVG Version: 6.00 Build 0)  -->
<svg version="1.1" id="Calque_1" xmlns="http://www.w3.org/2000/svg" xmlns:xlink="http://www.w3.org/1999/xlink" x="0px" y="0px"
	 viewBox="0 0 406.1 168.9" style="enable-background:new 0 0 406.1 168.9;" xml:space="preserve">
<style type="text/css">
	.st0{fill:#1D1D1B;}
	.st1{fill:#FFFFFF;}
</style>
<g>
	<path class="st0" d="M26.3,128.4c0,0.1-0.1,0.2-0.2,0.2c-0.5,0-1.2,0-2.2-0.1c-1.1,0-1.8-0.1-2.3-0.1c-0.6,0-1.3,0-2.2,0.1
		c-0.8,0-1.5,0.1-1.9,0.1c-0.1,0-0.1-0.1-0.1-0.2c0-0.1,0.1-0.2,0.1-0.2c0.6,0,1.1-0.1,1.4-0.2c0.3-0.1,0.4-0.4,0.4-0.7
		c0-0.4-0.2-1.1-0.7-2l-3.8-7.4H8.3l-2.6,5.7c-0.3,0.7-0.5,1.4-0.5,2c0,0.9,0.3,1.5,0.9,2c0.6,0.5,1.4,0.7,2.5,0.7
		c0.1,0,0.2,0.1,0.2,0.2c0,0.1-0.1,0.2-0.2,0.2c-0.4,0-1.1,0-1.9-0.1c-0.9,0-1.7-0.1-2.4-0.1c-0.6,0-1.4,0-2.3,0.1
		c-0.8,0-1.5,0.1-2,0.1c-0.1,0-0.1-0.1-0.1-0.2c0-0.1,0.1-0.2,0.1-0.2c0.7,0,1.2-0.1,1.7-0.4c0.5-0.3,0.9-0.8,1.4-1.5
		c0.5-0.7,1-1.8,1.6-3.1l7.8-17.2c0.1-0.1,0.2-0.1,0.3-0.1c0.2,0,0.3,0,0.3,0.1l9,17.7c0.8,1.7,1.5,2.9,2.1,3.5s1.1,1,1.7,1
		C26.2,128.2,26.3,128.3,26.3,128.4z M8.8,116.8h5.4l-2.9-5.7L8.8,116.8z"/>
	<path class="st0" d="M46.6,128.4c0,0.1,0,0.2-0.1,0.2h-5.9c-0.4,0-1-0.7-1.9-2.2s-2-3.4-3.3-6c-0.5,0.1-1,0.1-1.5,0.1h-0.6v5.1
		c0,0.8,0.1,1.3,0.2,1.6c0.1,0.3,0.3,0.6,0.6,0.7s0.8,0.2,1.5,0.2c0.1,0,0.1,0.1,0.1,0.2c0,0.1,0,0.2-0.1,0.2c-0.7,0-1.3,0-1.7,0
		l-2.4,0l-2.3,0c-0.4,0-1,0-1.8,0c-0.1,0-0.1-0.1-0.1-0.2c0-0.1,0-0.2,0.1-0.2c0.7,0,1.2-0.1,1.5-0.2c0.3-0.1,0.5-0.4,0.6-0.7
		s0.2-0.9,0.2-1.6v-11c0-0.7-0.1-1.3-0.2-1.6c-0.1-0.3-0.3-0.6-0.6-0.7s-0.8-0.2-1.4-0.2c-0.1,0-0.1-0.1-0.1-0.2
		c0-0.1,0-0.2,0.1-0.2l1.8,0c1,0,1.7,0.1,2.3,0.1c0.5,0,0.9,0,1.3,0c0.4,0,0.7,0,1-0.1c0.8-0.1,1.5-0.1,2.2-0.1
		c1.9,0,3.3,0.3,4.3,0.9c1,0.6,1.5,1.5,1.5,2.6c0,0.9-0.3,1.8-0.9,2.6c-0.6,0.8-1.4,1.4-2.5,2c1.3,2.2,2.4,3.9,3.4,5.1
		c0.9,1.2,1.8,2.1,2.6,2.6c0.8,0.5,1.6,0.8,2.4,0.8C46.6,128.2,46.6,128.3,46.6,128.4z M34.1,119.9c1.4,0,2.3-0.3,2.9-1
		c0.5-0.6,0.8-1.6,0.8-2.9c0-2.5-0.9-3.8-2.7-3.8c-0.5,0-0.9,0.1-1.1,0.2c-0.2,0.1-0.4,0.3-0.5,0.7s-0.1,0.8-0.1,1.5v5.1
		C33.4,119.9,33.7,119.9,34.1,119.9z"/>
	<path class="st0" d="M69.5,128.4c0,0.1,0,0.2-0.1,0.2c-0.6,0-1.2,0-1.5,0l-2.2,0l-2.5,0c-0.4,0-1,0-1.7,0c0,0-0.1-0.1-0.1-0.2
		c0-0.1,0-0.2,0.1-0.2c0.9,0,1.5-0.1,1.8-0.4s0.5-0.7,0.5-1.5l0-0.6l-0.6-11.1l-5.6,13.8c0,0.1-0.1,0.1-0.3,0.1
		c-0.1,0-0.2,0-0.3-0.1l-6.8-13.1l-0.1,8.8c0,1.4,0.2,2.5,0.6,3.1s1.1,1,2.1,1c0.1,0,0.1,0.1,0.1,0.2c0,0.1,0,0.2-0.1,0.2
		c-0.6,0-1,0-1.3,0l-1.7,0l-1.8,0c-0.3,0-0.8,0-1.4,0c0,0-0.1-0.1-0.1-0.2c0-0.1,0-0.2,0.1-0.2c1,0,1.7-0.3,2.1-1
		c0.4-0.7,0.7-1.7,0.7-3.1l0.1-10.1c-0.8-1.2-1.8-1.8-2.9-1.8c0,0-0.1-0.1-0.1-0.2c0-0.1,0-0.2,0.1-0.2l3,0l2.2,0
		c0.3,0,0.6,0.1,0.8,0.3s0.5,0.7,0.9,1.5l5.2,10l4.5-11c0.1-0.3,0.3-0.5,0.5-0.6c0.2-0.2,0.4-0.3,0.6-0.3l2.2,0l2.7,0
		c0,0,0.1,0.1,0.1,0.2c0,0.1,0,0.2-0.1,0.2c-0.9,0-1.6,0.2-2,0.5c-0.4,0.3-0.5,1-0.5,1.9l0.6,11.1c0,0.8,0.1,1.3,0.2,1.6
		c0.1,0.3,0.3,0.6,0.5,0.7s0.6,0.2,1.1,0.2C69.5,128.2,69.5,128.3,69.5,128.4z"/>
	<path class="st0" d="M86.4,113.1c-0.5-0.6-1.3-0.9-2.3-0.9c-0.1,0-0.1-0.1-0.1-0.2c0-0.1,0-0.2,0.1-0.2l1.5,0c0.8,0,1.5,0.1,2,0.1
		c0.4,0,1,0,1.7-0.1l1.5,0c0,0,0.1,0.1,0.1,0.2c0,0.1,0,0.2-0.1,0.2c-1,0-1.7,0.3-2.1,0.9s-0.6,1.5-0.6,2.9v6.1c0,2.2-0.6,4-1.8,5.2
		c-1.2,1.3-2.9,1.9-5,1.9c-1.4,0-2.6-0.3-3.7-0.8s-2-1.3-2.7-2.3c-0.7-1-1-2.2-1-3.6v-7.7c0-0.7,0-1.3-0.2-1.6
		c-0.1-0.3-0.3-0.6-0.6-0.7c-0.3-0.1-0.8-0.2-1.5-0.2c-0.1,0-0.1-0.1-0.1-0.2c0-0.1,0-0.2,0.1-0.2l1.7,0c1,0,1.7,0.1,2.3,0.1
		c0.6,0,1.5,0,2.4-0.1l1.7,0c0,0,0.1,0.1,0.1,0.2c0,0.1,0,0.2-0.1,0.2c-0.7,0-1.2,0.1-1.5,0.2c-0.3,0.1-0.5,0.4-0.7,0.7
		c-0.1,0.4-0.2,0.9-0.2,1.6v6.7c0,2.1,0.5,3.7,1.4,4.7c0.9,1,2.1,1.5,3.6,1.5s2.7-0.5,3.5-1.4c0.9-1,1.3-2.3,1.3-4.1v-6.1
		C87.1,114.6,86.9,113.7,86.4,113.1z"/>
	<path class="st0" d="M111.5,128.4c0,0.1,0,0.2-0.1,0.2h-5.9c-0.4,0-1-0.7-1.9-2.2s-2-3.4-3.3-6c-0.5,0.1-1,0.1-1.5,0.1h-0.6v5.1
		c0,0.8,0.1,1.3,0.2,1.6c0.1,0.3,0.3,0.6,0.6,0.7s0.8,0.2,1.5,0.2c0,0,0.1,0.1,0.1,0.2c0,0.1,0,0.2-0.1,0.2c-0.7,0-1.3,0-1.7,0
		l-2.5,0l-2.3,0c-0.4,0-1,0-1.8,0c0,0-0.1-0.1-0.1-0.2c0-0.1,0-0.2,0.1-0.2c0.7,0,1.2-0.1,1.5-0.2s0.5-0.4,0.6-0.7s0.2-0.9,0.2-1.6
		v-11c0-0.7,0-1.3-0.2-1.6c-0.1-0.3-0.3-0.6-0.6-0.7s-0.8-0.2-1.4-0.2c-0.1,0-0.1-0.1-0.1-0.2c0-0.1,0-0.2,0.1-0.2l1.8,0
		c1,0,1.7,0.1,2.3,0.1c0.5,0,0.9,0,1.3,0s0.7,0,1-0.1c0.8-0.1,1.5-0.1,2.2-0.1c1.9,0,3.3,0.3,4.3,0.9c1,0.6,1.5,1.5,1.5,2.6
		c0,0.9-0.3,1.8-0.9,2.6s-1.4,1.4-2.5,2c1.3,2.2,2.4,3.9,3.4,5.1c0.9,1.2,1.8,2.1,2.6,2.6c0.8,0.5,1.6,0.8,2.4,0.8
		C111.4,128.2,111.5,128.3,111.5,128.4z M99,119.9c1.4,0,2.3-0.3,2.9-1c0.5-0.6,0.8-1.6,0.8-2.9c0-2.5-0.9-3.8-2.7-3.8
		c-0.5,0-0.9,0.1-1.1,0.2s-0.4,0.3-0.5,0.7s-0.1,0.8-0.1,1.5v5.1C98.3,119.9,98.6,119.9,99,119.9z"/>
	<path class="st0" d="M125.9,123.7c0.1,0,0.2,0,0.2,0.1c-0.2,1.7-0.3,3.1-0.3,4.3c0,0.2,0,0.3-0.1,0.4c-0.1,0.1-0.2,0.1-0.4,0.1
		h-13.5c0,0-0.1-0.1-0.1-0.2c0-0.1,0-0.2,0.1-0.2c0.7,0,1.2-0.1,1.5-0.2s0.5-0.4,0.6-0.7s0.2-0.9,0.2-1.6v-11c0-0.7-0.1-1.3-0.2-1.6
		s-0.3-0.6-0.7-0.7c-0.3-0.1-0.8-0.2-1.5-0.2c0,0-0.1-0.1-0.1-0.2c0-0.1,0-0.2,0.1-0.2h12.9c0.2,0,0.4,0.1,0.4,0.3l0,2.2
		c0,0.5,0,1,0,1.7c0,0.1-0.1,0.1-0.2,0.1s-0.2,0-0.2-0.1c-0.5-1.1-1.1-2-2.1-2.7c-0.9-0.7-1.9-1.1-2.9-1.1h-0.3
		c-0.5,0-0.9,0.1-1.2,0.2s-0.4,0.4-0.5,0.7c-0.1,0.3-0.1,0.9-0.1,1.6v4.9c1.8,0,3.2-0.1,4-0.2s1.4-0.2,1.5-0.2
		c0.2,0,0.3,0.3,0.3,0.8c0,0.2,0,0.5-0.1,0.6c0,0.2-0.1,0.3-0.2,0.3c-0.1,0-0.6-0.1-1.5-0.2c-0.9-0.1-2.2-0.2-4-0.3v5.1
		c0,0.7,0,1.3,0.1,1.6s0.3,0.6,0.5,0.7c0.3,0.1,0.6,0.2,1.2,0.2h0.4c1.1,0,2.3-0.4,3.4-1.2c1.1-0.8,1.9-1.8,2.5-3
		C125.7,123.7,125.8,123.7,125.9,123.7z"/>
	<path class="st0" d="M147.9,128.4c0,0.1,0,0.2-0.1,0.2h-5.9c-0.4,0-1-0.7-1.9-2.2c-0.9-1.4-2-3.4-3.3-6c-0.5,0.1-1,0.1-1.5,0.1
		h-0.6v5.1c0,0.8,0.1,1.3,0.2,1.6c0.1,0.3,0.3,0.6,0.6,0.7s0.8,0.2,1.5,0.2c0,0,0.1,0.1,0.1,0.2c0,0.1,0,0.2-0.1,0.2
		c-0.7,0-1.3,0-1.7,0l-2.5,0l-2.3,0c-0.4,0-1,0-1.8,0c0,0-0.1-0.1-0.1-0.2c0-0.1,0-0.2,0.1-0.2c0.7,0,1.2-0.1,1.5-0.2
		s0.5-0.4,0.6-0.7s0.2-0.9,0.2-1.6v-11c0-0.7,0-1.3-0.2-1.6c-0.1-0.3-0.3-0.6-0.6-0.7s-0.8-0.2-1.4-0.2c-0.1,0-0.1-0.1-0.1-0.2
		c0-0.1,0-0.2,0.1-0.2l1.8,0c1,0,1.7,0.1,2.3,0.1c0.5,0,0.9,0,1.3,0s0.7,0,1-0.1c0.8-0.1,1.5-0.1,2.2-0.1c1.9,0,3.3,0.3,4.3,0.9
		c1,0.6,1.5,1.5,1.5,2.6c0,0.9-0.3,1.8-0.9,2.6s-1.4,1.4-2.5,2c1.3,2.2,2.4,3.9,3.4,5.1c0.9,1.2,1.8,2.1,2.6,2.6s1.6,0.8,2.4,0.8
		C147.9,128.2,147.9,128.3,147.9,128.4z M135.4,119.9c1.4,0,2.3-0.3,2.9-1c0.5-0.6,0.8-1.6,0.8-2.9c0-2.5-0.9-3.8-2.7-3.8
		c-0.5,0-0.9,0.1-1.1,0.2s-0.4,0.3-0.5,0.7s-0.1,0.8-0.1,1.5v5.1C134.7,119.9,135,119.9,135.4,119.9z"/>
	<path class="st0" d="M154.6,127.3c0.1,0.4,0.3,0.6,0.6,0.7c0.3,0.1,0.8,0.2,1.5,0.2c0,0,0.1,0.1,0.1,0.2c0,0.1,0,0.2-0.1,0.2
		c-0.8,0-1.3,0-1.7,0l-2.5,0l-2.3,0c-0.4,0-1,0-1.8,0c0,0-0.1-0.1-0.1-0.2c0-0.1,0-0.2,0.1-0.2c0.7,0,1.2-0.1,1.5-0.2
		s0.5-0.4,0.7-0.7c0.1-0.4,0.2-0.9,0.2-1.6v-11c0-0.7-0.1-1.3-0.2-1.6s-0.3-0.6-0.7-0.7c-0.3-0.1-0.8-0.2-1.5-0.2
		c0,0-0.1-0.1-0.1-0.2c0-0.1,0-0.2,0.1-0.2l1.8,0c1,0,1.7,0.1,2.3,0.1c0.6,0,1.5,0,2.5-0.1l1.7,0c0,0,0.1,0.1,0.1,0.2
		c0,0.1,0,0.2-0.1,0.2c-0.7,0-1.2,0.1-1.5,0.2c-0.3,0.1-0.5,0.4-0.7,0.7c-0.1,0.4-0.2,0.9-0.2,1.6v11
		C154.4,126.4,154.5,127,154.6,127.3z"/>
	<path class="st0" d="M173.3,123.7c0.1,0,0.2,0,0.2,0.1c-0.2,1.7-0.3,3.1-0.3,4.3c0,0.2,0,0.3-0.1,0.4c-0.1,0.1-0.2,0.1-0.4,0.1
		h-13.5c0,0-0.1-0.1-0.1-0.2c0-0.1,0-0.2,0.1-0.2c0.7,0,1.2-0.1,1.5-0.2s0.5-0.4,0.6-0.7s0.2-0.9,0.2-1.6v-11c0-0.7-0.1-1.3-0.2-1.6
		s-0.3-0.6-0.7-0.7c-0.3-0.1-0.8-0.2-1.5-0.2c0,0-0.1-0.1-0.1-0.2c0-0.1,0-0.2,0.1-0.2H172c0.2,0,0.4,0.1,0.4,0.3l0,2.2
		c0,0.5,0,1,0,1.7c0,0.1-0.1,0.1-0.2,0.1s-0.2,0-0.2-0.1c-0.5-1.1-1.1-2-2.1-2.7s-1.9-1.1-2.9-1.1h-0.3c-0.5,0-0.9,0.1-1.2,0.2
		s-0.4,0.4-0.5,0.7c-0.1,0.3-0.1,0.9-0.1,1.6v4.9c1.8,0,3.2-0.1,4-0.2c0.9-0.1,1.4-0.2,1.5-0.2c0.2,0,0.3,0.3,0.3,0.8
		c0,0.2,0,0.5-0.1,0.6c0,0.2-0.1,0.3-0.2,0.3c-0.1,0-0.6-0.1-1.5-0.2c-0.9-0.1-2.2-0.2-4-0.3v5.1c0,0.7,0,1.3,0.1,1.6
		c0.1,0.3,0.3,0.6,0.5,0.7s0.6,0.2,1.2,0.2h0.4c1.1,0,2.3-0.4,3.4-1.2s1.9-1.8,2.5-3C173.1,123.7,173.2,123.7,173.3,123.7z"/>
	<path class="st0" d="M191,128.6c-0.3,0-0.6,0-1.1-0.1c-0.4,0-0.9,0-1.5,0l-2.3,0c-0.4,0-1,0-1.8,0c0,0-0.1-0.1-0.1-0.2
		c0-0.1,0-0.2,0.1-0.2c0.7,0,1.2-0.1,1.6-0.2c0.3-0.1,0.5-0.4,0.6-0.7s0.2-0.9,0.2-1.6v-11c0-0.7,0-1.3-0.2-1.6
		c-0.1-0.3-0.3-0.6-0.6-0.7c-0.3-0.1-0.8-0.2-1.5-0.2c-0.1,0-0.1-0.1-0.1-0.2c0-0.1,0-0.2,0.1-0.2l1.7,0c1,0,1.7,0.1,2.3,0.1
		c0.8,0,1.5,0,2.2-0.1c1,0,1.7-0.1,2.2-0.1c2,0,3.8,0.4,5.2,1.1s2.6,1.7,3.4,3c0.8,1.3,1.1,2.7,1.1,4.3c0,1.7-0.4,3.1-1.2,4.5
		s-1.9,2.4-3.3,3.1c-1.4,0.8-3,1.1-4.8,1.1C192.5,128.8,191.8,128.7,191,128.6z M196.9,126c1-1.3,1.5-3.1,1.5-5.5
		c0-2.3-0.5-4.3-1.5-5.8c-1-1.5-2.5-2.3-4.4-2.3c-0.8,0-1.4,0.2-1.8,0.5c-0.4,0.3-0.5,1-0.5,1.8v10.6c0,1,0.2,1.7,0.5,2.1
		c0.4,0.4,1,0.6,2.1,0.6C194.6,128,195.9,127.3,196.9,126z"/>
	<path class="st0" d="M219.5,113.1c-0.5-0.6-1.3-0.9-2.3-0.9c-0.1,0-0.1-0.1-0.1-0.2c0-0.1,0-0.2,0.1-0.2l1.5,0c0.8,0,1.5,0.1,2,0.1
		c0.4,0,1,0,1.7-0.1l1.5,0c0,0,0.1,0.1,0.1,0.2c0,0.1,0,0.2-0.1,0.2c-1,0-1.7,0.3-2.1,0.9s-0.6,1.5-0.6,2.9v6.1c0,2.2-0.6,4-1.8,5.2
		s-2.9,1.9-5,1.9c-1.4,0-2.6-0.3-3.7-0.8s-2-1.3-2.7-2.3c-0.7-1-1-2.2-1-3.6v-7.7c0-0.7-0.1-1.3-0.2-1.6c-0.1-0.3-0.3-0.6-0.6-0.7
		c-0.3-0.1-0.8-0.2-1.5-0.2c-0.1,0-0.1-0.1-0.1-0.2c0-0.1,0-0.2,0.1-0.2l1.7,0c1,0,1.7,0.1,2.3,0.1c0.6,0,1.5,0,2.4-0.1l1.7,0
		c0,0,0.1,0.1,0.1,0.2c0,0.1,0,0.2-0.1,0.2c-0.7,0-1.2,0.1-1.5,0.2c-0.3,0.1-0.5,0.4-0.7,0.7c-0.1,0.4-0.2,0.9-0.2,1.6v6.7
		c0,2.1,0.5,3.7,1.4,4.7c0.9,1,2.1,1.5,3.6,1.5s2.7-0.5,3.5-1.4c0.9-1,1.3-2.3,1.3-4.1v-6.1C220.3,114.6,220,113.7,219.5,113.1z"/>
	<path class="st0" d="M251,106c1.1,0.2,2,0.4,2.7,0.7c0.2,0.1,0.4,0.2,0.4,0.3s0.1,0.3,0.2,0.6l0.4,5c0,0.1-0.1,0.1-0.2,0.1
		c-0.1,0-0.2,0-0.2-0.1c-0.8-1.9-1.9-3.4-3.3-4.4c-1.4-1-3-1.5-4.8-1.5c-2.4,0-4.2,0.9-5.5,2.6c-1.3,1.8-2,4.1-2,7.1
		c0,2.2,0.4,4.2,1.1,6c0.7,1.8,1.7,3.3,3,4.3c1.3,1.1,2.7,1.6,4.4,1.6c1.5,0,2.9-0.5,4.1-1.5c1.2-1,2.3-2.6,3.3-4.7
		c0-0.1,0.1-0.1,0.2-0.1s0.2,0.1,0.2,0.1l-0.5,4.9c0,0.3-0.1,0.5-0.2,0.6c-0.1,0.1-0.2,0.2-0.4,0.3c-2.1,0.8-4.3,1.2-6.6,1.2
		c-2.9,0-5.4-0.6-7.4-1.8s-3.4-2.6-4.3-4.4c-0.9-1.8-1.4-3.7-1.4-5.6c0-2.3,0.6-4.3,1.9-6s2.9-3.1,4.9-4.1c2-1,4.3-1.4,6.6-1.4
		C248.8,105.7,249.9,105.8,251,106z"/>
	<path class="st0" d="M262,127.8c-1.3-0.8-2.4-1.9-3.1-3.2c-0.8-1.4-1.1-2.8-1.1-4.4c0-1.8,0.5-3.4,1.4-4.8s2.2-2.4,3.6-3.1
		c1.5-0.7,3-1,4.6-1c1.7,0,3.2,0.4,4.5,1.2s2.3,1.9,3,3.2c0.7,1.3,1.1,2.7,1.1,4.2c0,1.6-0.4,3.1-1.3,4.5c-0.8,1.4-2,2.5-3.4,3.3
		c-1.4,0.8-3,1.2-4.8,1.2C264.8,129,263.3,128.6,262,127.8z M270.6,126.2c0.8-1.3,1.2-3.1,1.2-5.5c0-1.6-0.2-3-0.7-4.3
		c-0.5-1.3-1.2-2.3-2-3.1c-0.9-0.8-1.9-1.1-3-1.1c-1.4,0-2.5,0.6-3.2,1.7c-0.7,1.1-1.1,2.9-1.1,5.1c0,1.7,0.3,3.3,0.7,4.7
		s1.2,2.5,2,3.3c0.8,0.8,1.8,1.2,2.8,1.2C268.7,128.2,269.8,127.6,270.6,126.2z"/>
	<path class="st0" d="M283.9,125.6c0,0.6,0.1,1.1,0.2,1.4s0.4,0.5,0.7,0.7c0.4,0.1,0.9,0.2,1.6,0.2h0.4c1.4,0,2.6-0.4,3.8-1.3
		c1.1-0.9,2-2.1,2.5-3.6c0,0,0.1-0.1,0.2-0.1s0.2,0,0.2,0.1c-0.2,1.3-0.3,3-0.3,5.1c0,0.2,0,0.3-0.1,0.4c-0.1,0.1-0.2,0.1-0.5,0.1
		h-14.4c0,0-0.1-0.1-0.1-0.2c0-0.1,0-0.2,0.1-0.2c0.6,0,1.1-0.1,1.4-0.2c0.3-0.1,0.5-0.4,0.6-0.7s0.2-0.9,0.2-1.6v-11
		c0-0.7-0.1-1.3-0.2-1.6c-0.1-0.3-0.3-0.6-0.6-0.7c-0.3-0.1-0.8-0.2-1.4-0.2c0,0-0.1-0.1-0.1-0.2c0-0.1,0-0.2,0.1-0.2l1.8,0
		c1,0,1.8,0.1,2.3,0.1c0.6,0,1.4,0,2.5-0.1l1.7,0c0.1,0,0.1,0.1,0.1,0.2c0,0.1,0,0.2-0.1,0.2c-0.7,0-1.3,0.1-1.6,0.2
		c-0.4,0.1-0.6,0.4-0.7,0.7s-0.2,0.9-0.2,1.6L283.9,125.6L283.9,125.6z"/>
	<path class="st0" d="M299.3,127.8c-1.3-0.8-2.4-1.9-3.1-3.2c-0.8-1.4-1.1-2.8-1.1-4.4c0-1.8,0.5-3.4,1.4-4.8s2.2-2.4,3.6-3.1
		c1.5-0.7,3-1,4.6-1c1.7,0,3.2,0.4,4.5,1.2s2.3,1.9,3,3.2s1.1,2.7,1.1,4.2c0,1.6-0.4,3.1-1.3,4.5s-2,2.5-3.4,3.3
		c-1.4,0.8-3,1.2-4.8,1.2C302.1,129,300.6,128.6,299.3,127.8z M307.9,126.2c0.8-1.3,1.2-3.1,1.2-5.5c0-1.6-0.2-3-0.7-4.3
		c-0.5-1.3-1.2-2.3-2-3.1c-0.9-0.8-1.9-1.1-3-1.1c-1.4,0-2.5,0.6-3.2,1.7c-0.7,1.1-1.1,2.9-1.1,5.1c0,1.7,0.3,3.3,0.7,4.7
		s1.2,2.5,2,3.3c0.8,0.8,1.8,1.2,2.8,1.2C306,128.2,307.1,127.6,307.9,126.2z"/>
	<path class="st0" d="M338,128.4c0,0.1,0,0.2-0.1,0.2c-0.7,0-1.2,0-1.5,0l-2.2,0l-2.5,0c-0.4,0-1,0-1.7,0c0,0-0.1-0.1-0.1-0.2
		c0-0.1,0-0.2,0.1-0.2c0.9,0,1.5-0.1,1.8-0.4s0.5-0.7,0.5-1.5l0-0.6l-0.6-11.1l-5.6,13.8c0,0.1-0.1,0.1-0.3,0.1
		c-0.1,0-0.2,0-0.3-0.1l-6.8-13.1l-0.1,8.8c0,1.4,0.2,2.5,0.6,3.1s1.1,1,2.1,1c0.1,0,0.1,0.1,0.1,0.2c0,0.1,0,0.2-0.1,0.2
		c-0.6,0-1,0-1.3,0l-1.7,0l-1.8,0c-0.3,0-0.8,0-1.4,0c0,0-0.1-0.1-0.1-0.2c0-0.1,0-0.2,0.1-0.2c1,0,1.7-0.3,2.1-1s0.7-1.7,0.7-3.1
		l0.1-10.1c-0.8-1.2-1.8-1.8-2.9-1.8c0,0-0.1-0.1-0.1-0.2c0-0.1,0-0.2,0.1-0.2l3,0l2.2,0c0.3,0,0.6,0.1,0.8,0.3
		c0.2,0.2,0.5,0.7,0.9,1.5l5.2,10l4.5-11c0.1-0.3,0.3-0.5,0.5-0.6c0.2-0.2,0.4-0.3,0.7-0.3l2.2,0l2.7,0c0,0,0.1,0.1,0.1,0.2
		c0,0.1,0,0.2-0.1,0.2c-0.9,0-1.6,0.2-2,0.5c-0.4,0.3-0.5,1-0.5,1.9l0.7,11.1c0,0.8,0.1,1.3,0.2,1.6c0.1,0.3,0.3,0.6,0.5,0.7
		s0.6,0.2,1.2,0.2C338,128.2,338,128.3,338,128.4z"/>
	<path class="st0" d="M355,120.5c1,0.7,1.5,1.7,1.5,3c0,1-0.3,2-0.9,2.7c-0.6,0.8-1.4,1.4-2.5,1.9c-1.1,0.5-2.3,0.7-3.7,0.7
		c-0.7,0-1.4,0-2.3-0.1c-0.3,0-0.8,0-1.2-0.1c-0.5,0-1,0-1.6,0l-2.3,0c-0.4,0-1,0-1.8,0c0,0-0.1-0.1-0.1-0.2c0-0.1,0-0.2,0.1-0.2
		c0.7,0,1.2-0.1,1.6-0.2c0.3-0.1,0.5-0.4,0.7-0.7s0.2-0.9,0.2-1.6v-11c0-0.7,0-1.3-0.2-1.6s-0.3-0.6-0.7-0.7
		c-0.3-0.1-0.8-0.2-1.5-0.2c-0.1,0-0.1-0.1-0.1-0.2c0-0.1,0-0.2,0.1-0.2l1.7,0c1,0,1.7,0.1,2.3,0.1c0.7,0,1.5,0,2.3-0.1
		c0.3,0,0.7,0,1.2-0.1c0.5,0,1,0,1.4,0c1.8,0,3.2,0.3,4.2,0.9c1,0.6,1.5,1.5,1.5,2.6c0,0.9-0.3,1.7-1,2.4s-1.7,1.3-3,1.7
		C352.6,119.4,354.1,119.8,355,120.5z M346.9,112.3c-0.3,0.1-0.5,0.4-0.6,0.8s-0.2,0.9-0.2,1.7v4.5c0.4,0,1,0,1.6,0
		c0.9,0,1.5-0.1,2-0.2c0.5-0.2,0.8-0.5,1.1-0.9s0.4-1.1,0.4-2c0-2.6-1-3.9-3-3.9C347.6,112.1,347.2,112.2,346.9,112.3z M352.7,124.4
		c0-2.9-1.8-4.4-5.4-4.4c-0.5,0-0.9,0-1.2,0v5.7c0,0.9,0.2,1.6,0.5,1.9s1.1,0.6,2.2,0.6C351.4,128.2,352.7,126.9,352.7,124.4z"/>
	<path class="st0" d="M365.4,127.3c0.1,0.4,0.3,0.6,0.7,0.7c0.3,0.1,0.8,0.2,1.5,0.2c0,0,0.1,0.1,0.1,0.2c0,0.1,0,0.2-0.1,0.2
		c-0.8,0-1.3,0-1.7,0l-2.5,0l-2.3,0c-0.4,0-1,0-1.8,0c0,0-0.1-0.1-0.1-0.2c0-0.1,0-0.2,0.1-0.2c0.7,0,1.2-0.1,1.5-0.2
		s0.5-0.4,0.7-0.7s0.2-0.9,0.2-1.6v-11c0-0.7-0.1-1.3-0.2-1.6s-0.3-0.6-0.7-0.7c-0.3-0.1-0.8-0.2-1.5-0.2c0,0-0.1-0.1-0.1-0.2
		c0-0.1,0-0.2,0.1-0.2l1.8,0c1,0,1.7,0.1,2.3,0.1c0.7,0,1.5,0,2.5-0.1l1.7,0c0,0,0.1,0.1,0.1,0.2c0,0.1,0,0.2-0.1,0.2
		c-0.7,0-1.2,0.1-1.5,0.2c-0.3,0.1-0.5,0.4-0.7,0.7c-0.1,0.4-0.2,0.9-0.2,1.6v11C365.3,126.4,365.3,127,365.4,127.3z"/>
	<path class="st0" d="M384.1,123.7c0.1,0,0.2,0,0.2,0.1c-0.2,1.7-0.3,3.1-0.3,4.3c0,0.2,0,0.3-0.1,0.4c-0.1,0.1-0.2,0.1-0.4,0.1H370
		c0,0-0.1-0.1-0.1-0.2c0-0.1,0-0.2,0.1-0.2c0.7,0,1.2-0.1,1.5-0.2s0.5-0.4,0.7-0.7s0.2-0.9,0.2-1.6v-11c0-0.7-0.1-1.3-0.2-1.6
		s-0.3-0.6-0.7-0.7c-0.3-0.1-0.8-0.2-1.5-0.2c0,0-0.1-0.1-0.1-0.2c0-0.1,0-0.2,0.1-0.2h12.9c0.2,0,0.4,0.1,0.4,0.3l0,2.2
		c0,0.5,0,1,0,1.7c0,0.1-0.1,0.1-0.2,0.1s-0.2,0-0.2-0.1c-0.5-1.1-1.2-2-2.1-2.7c-0.9-0.7-1.9-1.1-2.8-1.1h-0.3
		c-0.5,0-0.9,0.1-1.2,0.2s-0.4,0.4-0.5,0.7c-0.1,0.3-0.1,0.9-0.1,1.6v4.9c1.8,0,3.2-0.1,4-0.2s1.4-0.2,1.5-0.2
		c0.2,0,0.3,0.3,0.3,0.8c0,0.2,0,0.5-0.1,0.6c0,0.2-0.1,0.3-0.2,0.3c-0.1,0-0.7-0.1-1.5-0.2s-2.2-0.2-4-0.3v5.1c0,0.7,0,1.3,0.1,1.6
		s0.3,0.6,0.5,0.7c0.3,0.1,0.6,0.2,1.2,0.2h0.4c1.1,0,2.3-0.4,3.3-1.2c1.1-0.8,1.9-1.8,2.5-3C383.9,123.7,384,123.7,384.1,123.7z"/>
	<path class="st0" d="M406.1,128.4c0,0.1,0,0.2-0.1,0.2h-5.9c-0.4,0-1-0.7-1.9-2.2c-0.9-1.4-2-3.4-3.3-6c-0.5,0.1-1,0.1-1.5,0.1
		h-0.6v5.1c0,0.8,0.1,1.3,0.2,1.6c0.1,0.3,0.3,0.6,0.6,0.7s0.8,0.2,1.5,0.2c0,0,0.1,0.1,0.1,0.2c0,0.1,0,0.2-0.1,0.2
		c-0.7,0-1.3,0-1.7,0l-2.5,0l-2.3,0c-0.4,0-1,0-1.8,0c0,0-0.1-0.1-0.1-0.2c0-0.1,0-0.2,0.1-0.2c0.7,0,1.2-0.1,1.5-0.2
		s0.5-0.4,0.7-0.7s0.2-0.9,0.2-1.6v-11c0-0.7,0-1.3-0.2-1.6s-0.3-0.6-0.6-0.7s-0.8-0.2-1.4-0.2c-0.1,0-0.1-0.1-0.1-0.2
		c0-0.1,0-0.2,0.1-0.2l1.8,0c1,0,1.7,0.1,2.3,0.1c0.5,0,0.9,0,1.3,0s0.7,0,1-0.1c0.8-0.1,1.5-0.1,2.2-0.1c1.9,0,3.3,0.3,4.3,0.9
		c1,0.6,1.5,1.5,1.5,2.6c0,0.9-0.3,1.8-0.9,2.6c-0.6,0.8-1.4,1.4-2.5,2c1.3,2.2,2.4,3.9,3.3,5.1c0.9,1.2,1.8,2.1,2.6,2.6
		s1.6,0.8,2.4,0.8C406.1,128.2,406.1,128.3,406.1,128.4z M393.6,119.9c1.4,0,2.3-0.3,2.8-1c0.5-0.6,0.8-1.6,0.8-2.9
		c0-2.5-0.9-3.8-2.7-3.8c-0.5,0-0.9,0.1-1.1,0.2s-0.4,0.3-0.5,0.7c-0.1,0.3-0.1,0.8-0.1,1.5v5.1
		C392.9,119.9,393.2,119.9,393.6,119.9z"/>
	<g>
		<path class="st0" d="M126.3,148.1c0.5,0,1.4,0,2.6-0.1v0.1c0,0.4,0,0.6-0.2,0.6c-0.5,0-0.9,0.1-1.1,0.2c-0.2,0.1-0.3,0.4-0.3,0.7
			c0,0.2,0,0.5,0.1,0.8l1.8,9.8l5.6-9.6c0.2-0.3,0.3-0.7,0.3-1.1c0-0.2-0.1-0.4-0.4-0.5s-0.6-0.2-0.9-0.2c0,0,0,0,0-0.1
			c0-0.3,0.1-0.4,0.2-0.5c1.1,0.1,1.9,0.1,2.2,0.1c0.4,0,1.1,0,2.3-0.1v0.1c0,0.3-0.1,0.5-0.2,0.5c-0.3,0-0.6,0.1-1,0.3
			c-0.4,0.2-0.7,0.5-0.9,0.9l-7.6,13.1c-0.3,0.5-0.6,0.8-0.9,0.8c-0.1,0-0.1,0-0.2-0.1l-2.3-13.1c-0.1-0.5-0.2-1-0.4-1.3
			c-0.1-0.2-0.3-0.3-0.5-0.4c-0.3-0.1-0.5-0.2-0.7-0.2c0,0,0,0,0-0.1c0-0.3,0.1-0.4,0.2-0.5C125.1,148,125.9,148.1,126.3,148.1z"/>
		<path class="st0" d="M142.7,153.2c0.7,0,1.2,0.2,1.6,0.5s0.5,0.8,0.5,1.2c0,0.7-0.4,1.4-1.1,2c-0.7,0.7-1.5,1.2-2.3,1.6
			s-1.5,0.5-2,0.5c-0.1,0-0.1,0.3-0.1,0.8c0,0.7,0.1,1.2,0.4,1.6s0.6,0.5,1.1,0.5c0.1,0,0.3,0,0.4,0c0.1,0,0.2-0.1,0.3-0.1
			s0.2-0.1,0.3-0.1c0.1-0.1,0.2-0.1,0.3-0.2c0.1-0.1,0.2-0.1,0.3-0.2s0.2-0.1,0.2-0.2s0.1-0.1,0.2-0.2s0.1-0.1,0.1-0.1l0.1-0.1
			c0,0,0.1,0.1,0.2,0.2c0.1,0.1,0.1,0.3,0.1,0.3c-0.2,0.4-0.7,0.8-1.3,1.4c-0.7,0.5-1.3,0.8-2,0.8c-0.8,0-1.4-0.3-1.9-1
			s-0.6-1.5-0.6-2.6c0-1.5,0.6-3,1.7-4.5C140.3,153.9,141.5,153.2,142.7,153.2z M142.5,154.1c-0.7,0-1.4,0.5-2.1,1.6
			c-0.6,1.1-1,1.9-1,2.5c0,0.1,0,0.1,0.1,0.1c0.6,0,1.3-0.4,2.2-1.1c0.9-0.8,1.4-1.5,1.4-2.3C143,154.4,142.9,154.1,142.5,154.1z"/>
		<path class="st0" d="M149,153.2c0.3,0,0.5,0.1,0.6,0.3c0.1,0.2,0.2,0.5,0.2,0.9c0,0.3,0,0.8-0.1,1.2l-0.4,2.2
			c0.2-0.3,0.5-0.8,1-1.5c0.5-0.7,1.2-1.4,1.9-2.1c0.8-0.7,1.4-1.1,1.8-1.1c0.8,0,1.2,0.5,1.2,1.5c0,0.7-0.1,1.6-0.3,2.6l-0.8,3.6
			c0,0.2-0.1,0.4-0.1,0.6c0,0.4,0.1,0.6,0.2,0.6c0.1,0,0.2,0,0.3-0.1s0.3-0.2,0.4-0.3c0.1-0.1,0.3-0.3,0.4-0.4
			c0.1-0.1,0.2-0.2,0.3-0.3l0.1-0.2c0,0,0.1,0.1,0.2,0.2c0.1,0.1,0.1,0.3,0.1,0.3c-0.2,0.4-0.6,0.8-1.3,1.4
			c-0.6,0.6-1.2,0.8-1.7,0.8c-0.3,0-0.5-0.1-0.6-0.3c-0.1-0.2-0.2-0.5-0.2-0.9c0-0.3,0.1-0.7,0.2-1.2l0.8-3.9
			c0.1-0.5,0.2-0.9,0.2-1.3c0-0.7-0.1-1-0.5-1c-0.5,0-1.3,0.7-2.4,2.1c-1.1,1.4-1.8,2.9-2.1,4.5l-0.4,1.8c-0.2,0.1-0.5,0.1-0.7,0.1
			s-0.5,0-0.8-0.1l1.4-7.2c0.1-0.6,0.1-0.9,0.1-0.9c0-0.4-0.1-0.6-0.2-0.6c-0.1,0-0.1,0-0.3,0.1c-0.1,0.1-0.2,0.2-0.3,0.3
			s-0.2,0.2-0.3,0.3c-0.1,0.1-0.2,0.2-0.4,0.4c0,0-0.1-0.1-0.2-0.2c-0.1-0.1-0.1-0.3-0.1-0.3c0.2-0.3,0.6-0.7,1.2-1.2
			C148,153.5,148.6,153.2,149,153.2z"/>
		<path class="st0" d="M160.4,150.7c0-0.2,0.4-0.2,1.1-0.2c0.2,0,0.3,0,0.4,0l-0.6,3.1h2.1c0.1,0,0.1,0.1,0.1,0.3
			c0,0.2-0.1,0.4-0.2,0.7h-2.2l-1.2,6.4c0,0.2-0.1,0.4-0.1,0.6c0,0.4,0.1,0.6,0.2,0.6c0.1,0,0.2,0,0.3-0.1s0.3-0.2,0.4-0.3
			c0.1-0.1,0.3-0.3,0.4-0.4c0.1-0.1,0.2-0.2,0.3-0.3l0.1-0.2c0,0,0.1,0.1,0.2,0.2c0.1,0.1,0.1,0.3,0.1,0.3c-0.2,0.4-0.6,0.8-1.3,1.4
			c-0.6,0.6-1.2,0.8-1.7,0.8c-0.3,0-0.5-0.1-0.6-0.3c-0.1-0.2-0.2-0.5-0.2-0.9c0-0.3,0.1-0.7,0.2-1.2l1.3-6.5H158
			c0,0-0.1-0.1-0.1-0.3c0-0.2,0.1-0.5,0.3-0.7h1.6L160.4,150.7z"/>
		<path class="st0" d="M168.8,153.2c0.7,0,1.2,0.2,1.6,0.5s0.5,0.8,0.5,1.2c0,0.7-0.4,1.4-1.1,2c-0.7,0.7-1.5,1.2-2.3,1.6
			s-1.5,0.5-2,0.5c-0.1,0-0.1,0.3-0.1,0.8c0,0.7,0.1,1.2,0.4,1.6s0.6,0.5,1.1,0.5c0.1,0,0.3,0,0.4,0c0.1,0,0.2-0.1,0.3-0.1
			s0.2-0.1,0.3-0.1c0.1-0.1,0.2-0.1,0.3-0.2c0.1-0.1,0.2-0.1,0.3-0.2s0.2-0.1,0.2-0.2s0.1-0.1,0.2-0.2s0.1-0.1,0.1-0.1l0.1-0.1
			c0,0,0.1,0.1,0.2,0.2s0.1,0.3,0.1,0.3c-0.2,0.4-0.7,0.8-1.3,1.4c-0.7,0.5-1.3,0.8-2,0.8c-0.8,0-1.4-0.3-1.9-1s-0.6-1.5-0.6-2.6
			c0-1.5,0.6-3,1.7-4.5C166.5,153.9,167.6,153.2,168.8,153.2z M168.6,154.1c-0.7,0-1.4,0.5-2.1,1.6c-0.6,1.1-1,1.9-1,2.5
			c0,0.1,0,0.1,0.1,0.1c0.6,0,1.3-0.4,2.2-1.1c0.9-0.8,1.4-1.5,1.4-2.3C169.2,154.4,169,154.1,168.6,154.1z"/>
		<path class="st0" d="M182.6,153.2c0.7,0,1.2,0.2,1.6,0.5s0.5,0.8,0.5,1.2c0,0.7-0.4,1.4-1.1,2c-0.7,0.7-1.5,1.2-2.3,1.6
			s-1.5,0.5-2,0.5c-0.1,0-0.1,0.3-0.1,0.8c0,0.7,0.1,1.2,0.4,1.6s0.6,0.5,1.1,0.5c0.1,0,0.3,0,0.4,0c0.1,0,0.2-0.1,0.3-0.1
			s0.2-0.1,0.3-0.1c0.1-0.1,0.2-0.1,0.3-0.2c0.1-0.1,0.2-0.1,0.3-0.2s0.2-0.1,0.2-0.2s0.1-0.1,0.2-0.2s0.1-0.1,0.1-0.1l0.1-0.1
			c0,0,0.1,0.1,0.2,0.2c0.1,0.1,0.1,0.3,0.1,0.3c-0.2,0.4-0.7,0.8-1.3,1.4c-0.7,0.5-1.3,0.8-2,0.8c-0.8,0-1.4-0.3-1.9-1
			s-0.6-1.5-0.6-2.6c0-1.5,0.6-3,1.7-4.5C180.2,153.9,181.4,153.2,182.6,153.2z M182.3,154.1c-0.7,0-1.4,0.5-2.1,1.6
			c-0.6,1.1-1,1.9-1,2.5c0,0.1,0,0.1,0.1,0.1c0.6,0,1.3-0.4,2.2-1.1c0.9-0.8,1.4-1.5,1.4-2.3C182.9,154.4,182.7,154.1,182.3,154.1z"
			/>
		<path class="st0" d="M188.8,150.7c0-0.2,0.4-0.2,1.1-0.2c0.2,0,0.3,0,0.4,0l-0.6,3.1h2.1c0.1,0,0.1,0.1,0.1,0.3
			c0,0.2-0.1,0.4-0.2,0.7h-2.2l-1.2,6.4c0,0.2-0.1,0.4-0.1,0.6c0,0.4,0.1,0.6,0.2,0.6c0.1,0,0.2,0,0.3-0.1s0.3-0.2,0.4-0.3
			c0.1-0.1,0.3-0.3,0.4-0.4c0.1-0.1,0.2-0.2,0.3-0.3l0.1-0.2c0,0,0.1,0.1,0.2,0.2s0.1,0.3,0.1,0.3c-0.2,0.4-0.6,0.8-1.3,1.4
			c-0.6,0.6-1.2,0.8-1.7,0.8c-0.3,0-0.5-0.1-0.6-0.3c-0.1-0.2-0.2-0.5-0.2-0.9c0-0.3,0-0.7,0.2-1.2l1.3-6.5h-1.7
			c0,0-0.1-0.1-0.1-0.3c0-0.2,0.1-0.5,0.3-0.7h1.6L188.8,150.7z"/>
		<path class="st0" d="M200.5,153.2c0.3,0,0.5,0.1,0.6,0.3c0.1,0.2,0.2,0.5,0.2,0.9c0,0.3,0,0.8-0.1,1.2l-0.4,2
			c0.4-0.9,1-1.9,1.8-2.9c0.8-1,1.4-1.5,2-1.5s1,0.3,1.3,0.8c0,1-0.3,1.6-0.9,1.6c-0.1,0-0.3-0.1-0.5-0.3c-0.2-0.2-0.4-0.3-0.5-0.3
			c-0.5,0-1.1,0.7-2,2c-0.9,1.4-1.5,2.7-1.7,4l-0.5,2.5c-0.3,0-0.5,0.1-0.8,0.1c-0.3,0-0.6,0-0.9-0.1l1.4-7.2
			c0.1-0.6,0.1-0.9,0.1-0.9c0-0.4-0.1-0.6-0.2-0.6c-0.1,0-0.1,0-0.3,0.1c-0.1,0.1-0.2,0.2-0.3,0.3s-0.2,0.2-0.3,0.3
			c-0.1,0.1-0.2,0.2-0.4,0.4c0,0-0.1-0.1-0.2-0.2s-0.1-0.3-0.1-0.3c0.2-0.3,0.6-0.7,1.2-1.2C199.6,153.5,200.1,153.2,200.5,153.2z"
			/>
		<path class="st0" d="M211.2,153.2c0.7,0,1.2,0.2,1.6,0.5s0.5,0.8,0.5,1.2c0,0.7-0.4,1.4-1.1,2c-0.7,0.7-1.5,1.2-2.3,1.6
			s-1.5,0.5-2,0.5c-0.1,0-0.1,0.3-0.1,0.8c0,0.7,0.1,1.2,0.4,1.6s0.6,0.5,1.1,0.5c0.1,0,0.3,0,0.4,0c0.1,0,0.2-0.1,0.3-0.1
			s0.2-0.1,0.3-0.1c0.1-0.1,0.2-0.1,0.3-0.2c0.1-0.1,0.2-0.1,0.3-0.2s0.2-0.1,0.2-0.2s0.1-0.1,0.2-0.2s0.1-0.1,0.1-0.1l0.1-0.1
			c0,0,0.1,0.1,0.2,0.2c0.1,0.1,0.1,0.3,0.1,0.3c-0.2,0.4-0.7,0.8-1.3,1.4c-0.7,0.5-1.3,0.8-2,0.8c-0.8,0-1.4-0.3-1.9-1
			s-0.6-1.5-0.6-2.6c0-1.5,0.6-3,1.7-4.5C208.9,153.9,210,153.2,211.2,153.2z M211,154.1c-0.7,0-1.4,0.5-2.1,1.6
			c-0.6,1.1-1,1.9-1,2.5c0,0.1,0,0.1,0.1,0.1c0.6,0,1.3-0.4,2.2-1.1c0.9-0.8,1.4-1.5,1.4-2.3C211.6,154.4,211.4,154.1,211,154.1z
			 M211.6,151.8c0,0-0.1,0-0.1-0.1c0-0.1-0.1-0.1-0.1-0.2c0-0.1,0.3-0.5,1-1.3c0.7-0.8,1.2-1.3,1.7-1.7c0.1-0.1,0.3-0.1,0.6-0.1
			c0.6,0,0.9,0.2,0.9,0.6c0,0.4-0.6,0.9-1.9,1.6C212.5,151.4,211.8,151.8,211.6,151.8z"/>
		<path class="st0" d="M221.1,153.2c0.7,0,1.3,0.3,1.7,0.9c0.4,0.6,0.6,1.4,0.6,2.2c0,1.1-0.4,2.2-1,3.3c-0.7,1.1-1.5,2-2.4,2.8
			c-0.9,0.7-1.8,1.1-2.5,1.1c-0.4,0-0.7-0.1-0.9-0.2l-0.7,3.5c0,0.2-0.1,0.4-0.1,0.7c0,0.3,0.1,0.5,0.3,0.5c0.2,0,0.6,0.1,1.1,0.1
			c0,0,0,0,0,0.1c0,0.2,0,0.4-0.1,0.5c-0.1,0-0.3,0-0.4,0s-0.3,0-0.4,0c-1.1,0-2.2,0.1-3.4,0.2c0,0-0.1-0.1-0.1-0.2
			c0-0.2,0-0.4,0.1-0.5c0.4,0,0.7-0.1,0.9-0.4c0.2-0.2,0.3-0.6,0.4-1l1.9-9.6l-1.1,1.1c-0.1-0.1-0.1-0.3-0.1-0.5
			c0-0.1,0-0.1,0.1-0.2l1.4-1.5l0.6-3c0.2-0.1,0.5-0.1,0.8-0.1c0.3,0,0.5,0,0.8,0.2c-0.1,0.7-0.2,1.1-0.3,1.3
			c0.3-0.3,0.6-0.5,0.8-0.7c0.2-0.2,0.5-0.3,0.9-0.5C220.2,153.3,220.6,153.2,221.1,153.2z M220.1,154.6c-0.9,0-1.7,0.4-2.3,1.2
			l-1,5.2c-0.1,0.4,0,0.7,0.1,1c0.1,0.3,0.4,0.5,0.8,0.5c0.9,0,1.8-0.6,2.6-1.8s1.2-2.5,1.2-3.8
			C221.6,155.3,221.1,154.6,220.1,154.6z"/>
		<path class="st0" d="M231.4,153.2c0.6,0,1.2,0.1,1.7,0.3l-1.4,7.4c0,0.2-0.1,0.4-0.1,0.6c0,0.4,0.1,0.6,0.2,0.6
			c0.1,0,0.2,0,0.3-0.1s0.3-0.2,0.4-0.3c0.1-0.1,0.3-0.3,0.4-0.4c0.1-0.1,0.2-0.2,0.3-0.3l0.1-0.2c0,0,0.1,0.1,0.2,0.2
			s0.1,0.3,0.1,0.3c-0.2,0.4-0.6,0.8-1.3,1.4c-0.6,0.6-1.2,0.8-1.7,0.8c-0.3,0-0.5-0.1-0.6-0.3c-0.1-0.2-0.2-0.5-0.2-0.9
			c0-0.3,0.1-0.7,0.2-1.2c0-0.2,0.1-0.3,0.1-0.4s0-0.2,0-0.2c-0.2,0.3-0.3,0.6-0.5,0.9c-0.2,0.3-0.5,0.6-0.8,1
			c-0.3,0.4-0.6,0.6-1,0.9s-0.7,0.3-1,0.3c-0.7,0-1.2-0.3-1.6-0.9s-0.6-1.4-0.6-2.2c0-1.1,0.3-2.2,1-3.3c0.7-1.1,1.5-2,2.6-2.8
			C229.3,153.5,230.3,153.2,231.4,153.2z M230.4,154.3c-0.9,0-1.8,0.6-2.7,1.8c-0.9,1.2-1.3,2.5-1.3,3.8c0,1.5,0.4,2.3,1.2,2.3
			c0.6,0,1.2-0.6,1.9-1.7c0.7-1.1,1.2-2.3,1.4-3.5l0.5-2.4C231.2,154.4,230.9,154.3,230.4,154.3z"/>
		<path class="st0" d="M238.3,153.2c0.3,0,0.5,0.1,0.6,0.3c0.1,0.2,0.2,0.5,0.2,0.9c0,0.3,0,0.8-0.1,1.2l-0.4,2
			c0.4-0.9,1-1.9,1.8-2.9c0.8-1,1.4-1.5,2-1.5s1,0.3,1.3,0.8c0,1-0.3,1.6-0.9,1.6c-0.1,0-0.3-0.1-0.5-0.3c-0.2-0.2-0.4-0.3-0.5-0.3
			c-0.5,0-1.1,0.7-2,2c-0.9,1.4-1.5,2.7-1.7,4l-0.5,2.5c-0.3,0-0.5,0.1-0.8,0.1c-0.3,0-0.6,0-0.9-0.1l1.4-7.2
			c0.1-0.6,0.1-0.9,0.1-0.9c0-0.4-0.1-0.6-0.2-0.6c-0.1,0-0.1,0-0.3,0.1c-0.1,0.1-0.2,0.2-0.3,0.3s-0.2,0.2-0.3,0.3
			c-0.1,0.1-0.2,0.2-0.4,0.4c0,0-0.1-0.1-0.2-0.2s-0.1-0.3-0.1-0.3c0.2-0.3,0.6-0.7,1.2-1.2C237.4,153.5,237.9,153.2,238.3,153.2z"
			/>
		<path class="st0" d="M249.7,153.2c0.6,0,1.2,0.1,1.7,0.3l-1.4,7.4c0,0.2-0.1,0.4-0.1,0.6c0,0.4,0.1,0.6,0.2,0.6
			c0.1,0,0.2,0,0.3-0.1s0.3-0.2,0.4-0.3c0.1-0.1,0.3-0.3,0.4-0.4c0.1-0.1,0.2-0.2,0.3-0.3l0.1-0.2c0,0,0.1,0.1,0.2,0.2
			c0.1,0.1,0.1,0.3,0.1,0.3c-0.2,0.4-0.6,0.8-1.3,1.4c-0.6,0.6-1.2,0.8-1.7,0.8c-0.3,0-0.5-0.1-0.6-0.3c-0.1-0.2-0.2-0.5-0.2-0.9
			c0-0.3,0.1-0.7,0.2-1.2c0-0.2,0.1-0.3,0.1-0.4s0-0.2,0-0.2c-0.2,0.3-0.3,0.6-0.5,0.9c-0.2,0.3-0.5,0.6-0.8,1
			c-0.3,0.4-0.6,0.6-1,0.9s-0.7,0.3-1,0.3c-0.7,0-1.2-0.3-1.6-0.9s-0.6-1.4-0.6-2.2c0-1.1,0.3-2.2,1-3.3c0.7-1.1,1.5-2,2.6-2.8
			C247.6,153.5,248.7,153.2,249.7,153.2z M248.7,154.3c-0.9,0-1.8,0.6-2.7,1.8c-0.9,1.2-1.3,2.5-1.3,3.8c0,1.5,0.4,2.3,1.2,2.3
			c0.6,0,1.2-0.6,1.9-1.7c0.7-1.1,1.2-2.3,1.4-3.5l0.5-2.4C249.5,154.4,249.2,154.3,248.7,154.3z"/>
		<path class="st0" d="M256.4,150.7c0-0.2,0.4-0.2,1.1-0.2c0.2,0,0.3,0,0.4,0l-0.6,3.1h2.1c0.1,0,0.1,0.1,0.1,0.3
			c0,0.2-0.1,0.4-0.2,0.7h-2.2l-1.2,6.4c0,0.2-0.1,0.4-0.1,0.6c0,0.4,0.1,0.6,0.2,0.6c0.1,0,0.2,0,0.3-0.1s0.3-0.2,0.4-0.3
			c0.1-0.1,0.3-0.3,0.4-0.4c0.1-0.1,0.2-0.2,0.3-0.3l0.1-0.2c0,0,0.1,0.1,0.2,0.2c0.1,0.1,0.1,0.3,0.1,0.3c-0.2,0.4-0.6,0.8-1.3,1.4
			c-0.6,0.6-1.2,0.8-1.7,0.8c-0.3,0-0.5-0.1-0.6-0.3c-0.1-0.2-0.2-0.5-0.2-0.9c0-0.3,0.1-0.7,0.2-1.2l1.3-6.5H254
			c0,0-0.1-0.1-0.1-0.3c0-0.2,0.1-0.5,0.3-0.7h1.6L256.4,150.7z"/>
		<path class="st0" d="M262.8,153.2c0.3,0,0.5,0.1,0.6,0.3s0.2,0.5,0.2,0.9c0,0.3,0,0.7-0.1,1.2l-1,5.3c0,0.2-0.1,0.4-0.1,0.6
			c0,0.4,0.1,0.6,0.2,0.6c0.1,0,0.2,0,0.3-0.1s0.3-0.2,0.4-0.3c0.1-0.1,0.3-0.3,0.4-0.4c0.1-0.1,0.2-0.2,0.3-0.3l0.1-0.2
			c0,0,0.1,0.1,0.2,0.2c0.1,0.1,0.1,0.3,0.1,0.3c-0.2,0.4-0.6,0.8-1.3,1.4c-0.6,0.6-1.2,0.8-1.7,0.8c-0.3,0-0.5-0.1-0.6-0.3
			s-0.2-0.5-0.2-0.9c0-0.3,0-0.7,0.2-1.2l1-4.9c0.1-0.5,0.1-0.8,0.1-0.9c0-0.4-0.1-0.6-0.2-0.6c-0.1,0-0.1,0-0.3,0.1
			c-0.1,0.1-0.2,0.2-0.3,0.3s-0.2,0.2-0.3,0.3c-0.1,0.1-0.2,0.2-0.3,0.3l-0.1,0.1c0,0-0.1-0.1-0.2-0.2c-0.1-0.1-0.1-0.3-0.1-0.3
			c0.2-0.3,0.6-0.7,1.2-1.2C261.9,153.5,262.4,153.2,262.8,153.2z M263.5,148.2c0.2,0,0.4,0.1,0.6,0.3c0.2,0.2,0.3,0.4,0.3,0.7
			c0,0.4-0.1,0.7-0.4,1c-0.2,0.3-0.5,0.4-0.9,0.4c-0.3,0-0.5-0.1-0.6-0.3c-0.1-0.2-0.2-0.4-0.2-0.7c0-0.4,0.1-0.7,0.4-0.9
			C262.9,148.4,263.2,148.2,263.5,148.2z"/>
		<path class="st0" d="M271.1,153.2c0.9,0,1.6,0.3,2.2,1c0.5,0.6,0.8,1.5,0.8,2.6c0,1.6-0.6,3.1-1.7,4.6s-2.3,2.1-3.5,2.1
			c-0.9,0-1.6-0.3-2.1-0.9c-0.5-0.6-0.7-1.5-0.7-2.6c0-1.6,0.6-3.2,1.7-4.6C268.8,153.9,269.9,153.2,271.1,153.2z M270.9,154.1
			c-0.8,0-1.5,0.6-2.1,1.8s-1,2.5-1,3.7c0,0.9,0.1,1.6,0.4,2.1c0.3,0.5,0.7,0.8,1.1,0.8c0.8,0,1.5-0.6,2.1-1.8
			c0.6-1.2,0.9-2.5,0.9-3.7c0-0.9-0.1-1.6-0.4-2.1S271.3,154.1,270.9,154.1z"/>
		<path class="st0" d="M278.3,153.2c0.3,0,0.5,0.1,0.6,0.3s0.2,0.5,0.2,0.9c0,0.3,0,0.8-0.1,1.2l-0.4,2.2c0.2-0.3,0.5-0.8,1-1.5
			c0.5-0.7,1.2-1.4,1.9-2.1c0.8-0.7,1.4-1.1,1.8-1.1c0.8,0,1.2,0.5,1.2,1.5c0,0.7-0.1,1.6-0.3,2.6l-0.8,3.6c0,0.2-0.1,0.4-0.1,0.6
			c0,0.4,0.1,0.6,0.2,0.6c0.1,0,0.2,0,0.3-0.1s0.3-0.2,0.4-0.3c0.1-0.1,0.3-0.3,0.4-0.4c0.1-0.1,0.2-0.2,0.3-0.3l0.1-0.2
			c0,0,0.1,0.1,0.2,0.2c0.1,0.1,0.1,0.3,0.1,0.3c-0.2,0.4-0.6,0.8-1.3,1.4c-0.6,0.6-1.2,0.8-1.7,0.8c-0.3,0-0.5-0.1-0.6-0.3
			s-0.2-0.5-0.2-0.9c0-0.3,0.1-0.7,0.2-1.2l0.8-3.9c0.1-0.5,0.2-0.9,0.2-1.3c0-0.7-0.2-1-0.5-1c-0.5,0-1.3,0.7-2.4,2.1
			c-1.1,1.4-1.8,2.9-2.1,4.5l-0.4,1.8c-0.2,0.1-0.5,0.1-0.7,0.1c-0.3,0-0.5,0-0.8-0.1l1.4-7.2c0.1-0.6,0.1-0.9,0.1-0.9
			c0-0.4-0.1-0.6-0.2-0.6c-0.1,0-0.1,0-0.3,0.1c-0.1,0.1-0.2,0.2-0.3,0.3s-0.2,0.2-0.3,0.3c-0.1,0.1-0.2,0.2-0.4,0.4
			c0,0-0.1-0.1-0.2-0.2c-0.1-0.1-0.1-0.3-0.1-0.3c0.2-0.3,0.6-0.7,1.2-1.2C277.4,153.5,277.9,153.2,278.3,153.2z"/>
	</g>
	<g>
		<path class="st0" d="M224.5,65.9c0,0.4-0.2,0.6-0.5,0.6c-1.3,0-3.3-0.1-6-0.2c-2.8-0.1-4.8-0.2-6.1-0.2c-1.6,0-3.6,0.1-5.9,0.2
			c-2.2,0.1-3.9,0.2-5.2,0.2c-0.3,0-0.4-0.2-0.4-0.6s0.1-0.6,0.4-0.6c1.7,0,2.9-0.2,3.6-0.5c0.7-0.4,1.1-1,1.1-1.9
			c0-1.1-0.6-2.9-1.9-5.5l-10-19.7h-17.1l-6.8,15.1c-0.8,1.9-1.3,3.6-1.3,5.2c0,2.3,0.8,4.1,2.5,5.4s3.8,1.9,6.6,1.9
			c0.3,0,0.5,0.2,0.5,0.6s-0.2,0.6-0.5,0.6c-1.1,0-2.8-0.1-5-0.2c-2.4-0.1-4.5-0.2-6.3-0.2c-1.7,0-3.8,0.1-6.3,0.2
			c-2.2,0.1-3.9,0.2-5.3,0.2c-0.3,0-0.4-0.2-0.4-0.6s0.1-0.6,0.4-0.6c1.8,0,3.3-0.4,4.5-1.1s2.4-2,3.6-3.9s2.7-4.7,4.3-8.4L188,6.1
			c0.1-0.2,0.4-0.3,0.9-0.3c0.5,0,0.8,0.1,0.9,0.3l24,47.3c2.2,4.5,4.1,7.7,5.6,9.4c1.5,1.7,3,2.6,4.6,2.6
			C224.3,65.4,224.5,65.5,224.5,65.9z M177.8,35.1h14.5l-7.7-15.2L177.8,35.1z"/>
	</g>
	<path class="st0" d="M208,70.5c-15.6,0-29.3-11.6-31.4-27.5c-2.3-17.3,9.9-33.3,27.3-35.6c8.4-1.1,16.7,1.1,23.4,6.3
		c6.7,5.1,11,12.6,12.1,21c1.1,8.4-1.1,16.7-6.3,23.4c-5.1,6.7-12.6,11-21,12.1C210.8,70.4,209.4,70.5,208,70.5z M208.1,7.9
		c-1.4,0-2.7,0.1-4.1,0.3c-16.9,2.2-28.8,17.8-26.6,34.7c1.1,8.2,5.3,15.5,11.8,20.5c6.6,5,14.7,7.2,22.9,6.1
		c8.2-1.1,15.5-5.3,20.5-11.8c5-6.6,7.2-14.7,6.1-22.9c-1.1-8.2-5.3-15.5-11.8-20.5C221.4,10.1,214.8,7.9,208.1,7.9z"/>
	<rect x="216.5" class="st1" width="30.7" height="55.4"/>
	<path d="M234.1,56.8l-0.6-0.4l0.8-1.2c1-1.3,3.5-5.9,3.5-5.9l0.8-1.6c1.2-2.2,2.5-4.4,4-6.4c0.1-0.1,1.5-1.6,3.4-1.5
		c-0.9-0.8-2.7-1.8-5.2-0.2l-1.3,0.8l2.5-4.1c1.1-1.8,2.4-3.4,3.8-4.8c1-1,2.2-1.9,2.5-2.1c2.2-1,4-0.7,5.4,0.8
		c0.4,0.4,0.5,1,0.4,1.5c-0.1,0.4-0.3,0.8-0.6,1.1c0.2,0.3,0.4,0.6,0.4,1.1c0,0.3-0.1,0.7-0.6,1.1c-0.8,0.6-1.8,0.8-2.7,0.4
		c0,0-0.1,0-0.1,0c-0.1,0.5-0.2,1.3,0.3,2c0.5,0.8,1.7,1.1,3.5,0.9l2.6-0.2l-2.4,0.9c-1.2,0.4-3.4,0.8-4.8-0.4
		c0.1,0.6,0.6,1.5,1.8,2.1c1.2,0.6,2.7,0.7,4,0.3c0.1,0,0.2-0.1,0.3-0.1c1.5-0.6,2.7-1.7,3.5-3.3c0.7-1.4,1.3-3.5,0.5-5.6
		c-1.2-3-3.3-6.2-9.4-4.9l-0.6,0.1l0.7-1.9c-1.1-0.3-4.9-0.5-8.3,6l-0.3,0.6l-0.3-0.6c0-0.1-1.1-1.8-0.8-3.6
		c-1.6,1.1-6.8,7.4-8.6,16.3l-0.6,3.2l-0.1-3.2c0,0-0.1-3.4-1.5-4.9c-0.3,0.6-0.8,1.7-1.1,2.9l-0.1,0.6l-0.5-0.4
		c0,0-1.2-1.1-4.1-1.1c1.6,1.6,5.6,5.9,4.4,9l-0.7-0.3c1.3-3.3-4.8-8.8-4.9-8.8l-0.7-0.6l0.9,0c2.8-0.1,4.4,0.6,5.1,1
		c0.4-1.6,1.2-3,1.2-3l0.2-0.4l0.3,0.2c1.1,0.8,1.7,2.4,1.9,3.7c2.3-8.4,7.5-14.5,9-15c0.3-0.1,0.5,0,0.5,0.1
		c0.1,0.1,0.2,0.3,0.1,0.6c-0.2,1,0.1,2.1,0.4,2.8c4.3-7.5,9-5.7,9.2-5.6l0.3,0.1l-0.5,1.3c6.3-1.1,8.5,2.6,9.6,5.4
		c0.9,2.4,0.2,4.7-0.5,6.2c-0.9,1.7-2.3,3-3.9,3.7c-0.1,0.1-0.2,0.1-0.4,0.1c-1.5,0.5-3.2,0.4-4.5-0.3c-2.7-1.3-2.2-3.8-2.2-3.9
		l0.2-1l0.5,0.9c0.3,0.6,0.9,1,1.5,1.2c-0.3-0.2-0.6-0.4-0.8-0.7c-0.9-1.3-0.2-3-0.2-3.1l0.2-0.4l0.4,0.3c0.1,0.1,0.3,0.2,0.4,0.2
		c0.6,0.3,1.4,0.2,2-0.3c0.2-0.2,0.3-0.4,0.3-0.5c0-0.4-0.4-0.8-0.5-0.9l-0.4-0.4l0.5-0.3c0.4-0.2,0.6-0.5,0.6-0.8
		c0.1-0.3,0-0.7-0.3-0.9c-1.8-2-3.8-1-4.5-0.7c-0.3,0.1-1.3,0.9-2.4,2c-1.4,1.4-2.7,2.9-3.7,4.6l-1,1.7c3.6-1.4,5.7,1.8,5.7,1.8
		l0.6,0.9l-1-0.4c-1.9-0.8-3.7,1.1-3.7,1.1c-1.5,1.9-2.8,4.1-3.9,6.3l-0.9,1.6c-0.1,0.2-2.5,4.7-3.5,6L234.1,56.8z"/>
</g>
</svg>
