<?xml version="1.0" encoding="utf-8"?>
<!-- Generator: Adobe Illustrator 24.2.1, SVG Export Plug-In . SVG Version: 6.00 Build 0)  -->
<svg version="1.1" id="Calque_1" xmlns="http://www.w3.org/2000/svg" xmlns:xlink="http://www.w3.org/1999/xlink" x="0px" y="0px"
	 viewBox="0 0 114.1 77.3" style="enable-background:new 0 0 114.1 77.3;" xml:space="preserve">
<style type="text/css">
	.st0{fill:#1D1D1B;}
	.st1{fill:#FFFFFF;}
</style>
<g>
	<g>
		<path class="st0" d="M73.6,68.6c0,0.4-0.2,0.6-0.5,0.6c-1.3,0-3.3-0.1-6-0.2c-2.8-0.1-4.8-0.2-6.1-0.2c-1.6,0-3.6,0.1-5.9,0.2
			c-2.2,0.1-3.9,0.2-5.2,0.2c-0.3,0-0.4-0.2-0.4-0.6s0.1-0.6,0.4-0.6c1.7,0,2.9-0.2,3.6-0.5c0.7-0.4,1.1-1,1.1-1.9
			c0-1.1-0.6-2.9-1.9-5.5l-10-19.7h-17l-6.8,15.1c-0.8,1.9-1.3,3.6-1.3,5.2c0,2.3,0.8,4.1,2.5,5.4s3.8,1.9,6.6,1.9
			c0.3,0,0.5,0.2,0.5,0.6s-0.2,0.6-0.5,0.6c-1.1,0-2.8-0.1-5-0.2c-2.4-0.1-4.5-0.2-6.3-0.2c-1.7,0-3.8,0.1-6.3,0.2
			c-2.2,0.1-3.9,0.2-5.3,0.2c-0.3,0-0.4-0.2-0.4-0.6S3.5,68,3.8,68c1.8,0,3.3-0.4,4.5-1.1s2.4-2,3.6-3.9s2.7-4.7,4.3-8.4L37.1,8.8
			c0.1-0.2,0.4-0.3,0.9-0.3s0.8,0.1,0.9,0.3l24,47.3c2.2,4.5,4.1,7.7,5.6,9.4c1.5,1.7,3,2.6,4.6,2.6C73.4,68,73.6,68.2,73.6,68.6z
			 M27,37.7h14.5l-7.7-15.2L27,37.7z"/>
	</g>
	<path class="st0" d="M57.1,73.1c-15.6,0-29.3-11.6-31.4-27.5C23.4,28.3,35.6,12.3,53,10c8.4-1.1,16.7,1.1,23.4,6.3
		c6.7,5.1,11,12.6,12.1,21S87.4,54,82.2,60.7c-5.1,6.7-12.6,11-21,12.1C59.9,73,58.5,73.1,57.1,73.1z M57.2,10.5
		c-1.4,0-2.7,0.1-4.1,0.3C36.2,13,24.3,28.6,26.5,45.5C27.6,53.7,31.8,61,38.3,66c6.6,5,14.7,7.2,22.9,6.1
		c8.2-1.1,15.5-5.3,20.5-11.8c5-6.6,7.2-14.7,6.1-22.9S82.5,21.9,76,16.9C70.5,12.7,64,10.5,57.2,10.5z"/>
	<rect x="65.7" y="2.6" class="st1" width="30.7" height="55.4"/>
	<path d="M83.2,59.4L82.6,59l0.8-1.2c1-1.3,3.5-5.9,3.5-5.9l0.8-1.6c1.2-2.2,2.5-4.4,4-6.4c0.1-0.1,1.5-1.6,3.4-1.5
		c-0.9-0.8-2.7-1.8-5.2-0.2L88.6,43l2.5-4.1c1.1-1.8,2.4-3.4,3.8-4.8c1-1,2.2-1.9,2.5-2.1c2.2-1,4-0.7,5.4,0.8
		c0.4,0.4,0.5,1,0.4,1.5c-0.1,0.4-0.3,0.8-0.6,1.1c0.2,0.3,0.4,0.6,0.4,1.1c0,0.3-0.1,0.7-0.6,1.1c-0.8,0.6-1.8,0.8-2.7,0.4h-0.1
		c-0.1,0.5-0.2,1.3,0.3,2c0.5,0.8,1.7,1.1,3.5,0.9l2.6-0.2l-2.4,0.9c-1.2,0.4-3.4,0.8-4.8-0.4c0.1,0.6,0.6,1.5,1.8,2.1
		c1.2,0.6,2.7,0.7,4,0.3c0.1,0,0.2-0.1,0.3-0.1c1.5-0.6,2.7-1.7,3.5-3.3c0.7-1.4,1.3-3.5,0.5-5.6c-1.2-3-3.3-6.2-9.4-4.9l-0.6,0.1
		l0.7-1.9c-1.1-0.3-4.9-0.5-8.3,6L91,34.5l-0.3-0.7c0-0.1-1.1-1.8-0.8-3.6c-1.6,1.1-6.8,7.4-8.6,16.3l-0.6,3.2l-0.1-3.2
		c0,0-0.1-3.4-1.5-4.9c-0.3,0.6-0.8,1.7-1.1,2.9l-0.1,0.6l-0.5-0.4c0,0-1.2-1.1-4.1-1.1c1.6,1.6,5.6,5.9,4.4,9L77,52.3
		c1.3-3.3-4.8-8.8-4.9-8.8l-0.7-0.6h0.9c2.8-0.1,4.4,0.6,5.1,1c0.4-1.6,1.2-3,1.2-3l0.2-0.4l0.3,0.2c1.1,0.8,1.7,2.4,1.9,3.7
		c2.3-8.4,7.5-14.5,9-15c0.3-0.1,0.5,0,0.5,0.1c0.1,0.1,0.2,0.3,0.1,0.6c-0.2,1,0.1,2.1,0.4,2.8c4.3-7.5,9-5.7,9.2-5.6l0.3,0.1
		l-0.5,1.3c6.3-1.1,8.5,2.6,9.6,5.4c0.9,2.4,0.2,4.7-0.5,6.2c-0.9,1.7-2.3,3-3.9,3.7c-0.1,0.1-0.2,0.1-0.4,0.1
		c-1.5,0.5-3.2,0.4-4.5-0.3c-2.7-1.3-2.2-3.8-2.2-3.9l0.2-1l0.5,0.9c0.3,0.6,0.9,1,1.5,1.2c-0.3-0.2-0.6-0.4-0.8-0.7
		c-0.9-1.3-0.2-3-0.2-3.1l0.2-0.4l0.4,0.3c0.1,0.1,0.3,0.2,0.4,0.2c0.6,0.3,1.4,0.2,2-0.3c0.2-0.2,0.3-0.4,0.3-0.5
		c0-0.4-0.4-0.8-0.5-0.9l-0.4-0.4l0.5-0.3c0.4-0.2,0.6-0.5,0.6-0.8c0.1-0.3,0-0.7-0.3-0.9c-1.8-2-3.8-1-4.5-0.7
		c-0.3,0.1-1.3,0.9-2.4,2c-1.4,1.4-2.7,2.9-3.7,4.6l-1,1.7c3.6-1.4,5.7,1.8,5.7,1.8l0.6,0.9l-1-0.4c-1.9-0.8-3.7,1.1-3.7,1.1
		c-1.5,1.9-2.8,4.1-3.9,6.3l-0.9,1.6c-0.1,0.2-2.5,4.7-3.5,6L83.2,59.4z"/>
</g>
</svg>
