<?xml version="1.0" encoding="utf-8"?>
<!-- Generator: Adobe Illustrator 24.2.1, SVG Export Plug-In . SVG Version: 6.00 Build 0)  -->
<svg version="1.1" id="Calque_1" xmlns="http://www.w3.org/2000/svg" xmlns:xlink="http://www.w3.org/1999/xlink" x="0px" y="0px"
	 viewBox="0 0 138.09 68.99" style="enable-background:new 0 0 138.09 68.99;" xml:space="preserve">
<style type="text/css">
	.st0{fill:#FFFFFF;}
</style>
<g>
	<path class="st0" d="M68.3,68.99c23.35-22.68,46.43-45.1,69.78-67.78c-2.75,0-5,0.07-7.24-0.02c-2.95-0.12-5.18,0.87-7.34,3.05
		c-17.03,17.19-34.19,34.24-51.32,51.33c-0.75,0.75-1.55,1.44-2.93,2.72c-0.75-1.08-1.26-2.1-2.03-2.87
		C49.43,37.59,31.61,19.79,13.76,2.02c-0.8-0.8-1.85-1.83-2.84-1.89C7.2-0.09,3.47,0.04,0,0.04C22.72,22.98,45.39,45.86,68.3,68.99z
		"/>
	<path d="M68.3,68.99C45.39,45.86,22.72,22.98,0,0.04c3.47,0,7.2-0.13,10.92,0.09c0.99,0.06,2.03,1.09,2.84,1.89
		c17.85,17.77,35.68,35.57,53.48,53.39c0.76,0.77,1.27,1.79,2.03,2.87c1.38-1.28,2.18-1.97,2.93-2.72
		c17.13-17.09,34.29-34.15,51.32-51.33c2.16-2.18,4.39-3.16,7.34-3.05c2.24,0.09,4.49,0.02,7.24,0.02
		C114.73,23.89,91.66,46.3,68.3,68.99z"/>
</g>
</svg>
